<svg xmlns="http://www.w3.org/2000/svg" version="1.1" xmlns:xlink="http://www.w3.org/1999/xlink" xmlns:svgjs="http://svgjs.dev/svgjs" width="1500" height="1500" viewBox="0 0 1500 1500"><g transform="matrix(1,0,0,1,-0.323615160350073,-0.3236151603499593)"><svg viewBox="0 0 343 343" data-background-color="#ffffff" preserveAspectRatio="xMidYMid meet" height="1500" width="1500" xmlns="http://www.w3.org/2000/svg" xmlns:xlink="http://www.w3.org/1999/xlink"><g id="tight-bounds" transform="matrix(1,0,0,1,0.0740000000000407,0.07400000000001228)"><svg viewBox="0 0 342.85155851775386 342.85155851775386" height="342.85155851775386" width="342.85155851775386"><g><svg></svg></g><g><svg viewBox="0 0 342.85155851775386 342.85155851775386" height="342.85155851775386" width="342.85155851775386"><g><path d="M0 171.426c0-94.676 76.75-171.426 171.426-171.426 94.676 0 171.426 76.75 171.426 171.426 0 94.676-76.75 171.426-171.426 171.426-94.676 0-171.426-76.75-171.426-171.426zM171.426 333.681c89.611 0 162.255-72.644 162.255-162.255 0-89.611-72.644-162.255-162.255-162.255-89.611 0-162.255 72.644-162.255 162.255 0 89.611 72.644 162.255 162.255 162.255z" data-fill-palette-color="tertiary" fill="#ff5858" stroke="transparent"></path><ellipse rx="164.56874808852186" ry="164.56874808852186" cx="171.42577925887693" cy="171.42577925887693" fill="#ff5858" stroke="transparent" stroke-width="0" fill-opacity="1" data-fill-palette-color="tertiary"></ellipse></g><g transform="matrix(1,0,0,1,64.84655864529837,120.5794348521511)"><svg viewBox="0 0 213.1584412271571 101.69268881345167" height="101.69268881345167" width="213.1584412271571"><g><svg viewBox="0 0 213.1584412271571 101.69268881345167" height="101.69268881345167" width="213.1584412271571"><g><svg viewBox="0 0 213.1584412271571 101.69268881345167" height="101.69268881345167" width="213.1584412271571"><g><svg viewBox="0 0 213.1584412271571 101.69268881345167" height="101.69268881345167" width="213.1584412271571"><g id="textblocktransform"><svg viewBox="0 0 213.1584412271571 101.69268881345167" height="101.69268881345167" width="213.1584412271571" id="textblock"><g><svg viewBox="0 0 213.1584412271571 101.69268881345167" height="101.69268881345167" width="213.1584412271571"><g transform="matrix(1,0,0,1,0,0)"><svg width="213.1584412271571" viewBox="3.49 -36.6 78.81 37.6" height="101.69268881345167" data-palette-color="#ffffff"><path d="M28.81-32.86L28.81-32.86Q24.88-34.84 21-34.84L21-34.84Q17.92-34.84 15.45-33.85 12.99-32.86 11.24-30.74 9.5-28.61 8.57-25.32 7.64-22.02 7.64-17.41L7.64-17.41Q7.64-15.06 8.11-12.92 8.57-10.77 9.44-8.9 10.3-7.03 11.56-5.51 12.82-3.98 14.4-2.89 15.99-1.81 17.88-1.21 19.78-0.61 21.9-0.61L21.9-0.61Q23.44-0.61 24.69-0.76 25.95-0.9 27.08-1.28 28.2-1.66 29.3-2.33 30.4-3 31.64-4.05L31.64-4.05 32.64-2.91Q31.2-1.83 29.86-1.1 28.52-0.37 27.11 0.11 25.71 0.59 24.15 0.79 22.58 1 20.7 1L20.7 1Q16.99 1 13.83-0.34 10.67-1.68 8.37-4.14 6.08-6.59 4.79-10.07 3.49-13.55 3.49-17.8L3.49-17.8Q3.49-22.14 4.92-25.62 6.35-29.1 8.86-31.54 11.38-33.98 14.79-35.29 18.21-36.6 22.19-36.6L22.19-36.6Q27.22-36.6 31.81-34.11L31.81-34.11Q31.03-30.15 29.39-26.76L29.39-26.76 28.76-27.1Q29.05-28.88 29.05-30.64L29.05-30.64Q29.05-32.2 28.81-32.86ZM59.45-5.05L71.04-33.96Q72.8-35.25 74.85-35.6L74.85-35.6 78.1-4.39Q78.24-2.42 79.12-1.6 80-0.78 82.3-0.61L82.3-0.61 82.15 0Q79.34-0.07 77.78 0.05 76.22 0.17 74.46 0.76L74.46 0.76 74.29 0.49Q74.75-0.29 74.56-2.1L74.56-2.1 71.7-30.49 59.15 0.95 57.44 0.15Q57.35-1.59 56.05-4.76L56.05-4.76 44.89-29.44 42.04-3.39Q41.94-2.54 42.17-2.01 42.4-1.49 43.3-1.04 44.19-0.59 45.94-0.24L45.94-0.24 45.85 0.2Q41.84-0.1 39.6 0L39.6 0Q39.4-0.2 39.3-0.49L39.3-0.49 42.99-32.45Q42.31-33.01 41.31-33.04 40.31-33.08 39.4-32.86L39.4-32.86 39.11-33.35Q42.75-35.4 45.75-35.4L45.75-35.4Q46.34-34.08 52.33-20.75 58.32-7.42 59.45-5.05L59.45-5.05Z" opacity="1" transform="matrix(1,0,0,1,0,0)" fill="#ffffff" class="wordmark-text-0" data-fill-palette-color="quaternary" id="text-0"></path></svg></g></svg></g></svg></g></svg></g><g></g></svg></g></svg></g></svg></g></svg></g><defs></defs></svg><rect width="342.85155851775386" height="342.85155851775386" fill="none" stroke="none" visibility="hidden"></rect></g></svg></g></svg>